<svg xmlns="http://www.w3.org/2000/svg" width="28" height="28"><g fill="none" fill-rule="evenodd" transform="translate(1 1)"><circle cx="13" cy="13" r="13" fill="#FFF" stroke="#EFEFEF"/><path fill="#F5281E" d="M12.682 16.697a5.129 5.129 0 01-1.834-.335c-.904-.352-2.108-1.147-2.727-2.932l-.059-.17 9.17-3.198.059.17c.126.367.383 1.616.047 2.972-.394 1.576-1.415 2.662-3.039 3.228a4.99 4.99 0 01-1.617.265zm7.253-7.469l-.426-1.36C19.328 7.292 18.98 7 18.479 7c-.18 0-.382.037-.599.113L5.907 11.261c-.421.147-.698.358-.824.629-.123.258-.11.583.038.965l.512 1.328c1.065 2.777 2.898 3.99 4.249 4.52a8.14 8.14 0 002.942.546 7.5 7.5 0 002.439-.395c3.892-1.348 5.944-5.576 4.672-9.626z"/></g></svg>