<svg xmlns="http://www.w3.org/2000/svg" width="18" height="18" viewBox="0 0 18 18">
    <g fill="none" fill-rule="evenodd">
        <g fill="#ADADAD">
            <g>
                <g>
                    <g>
                        <g>
                            <path d="M9 .45c4.722 0 8.55 3.828 8.55 8.55 0 4.722-3.828 8.55-8.55 8.55C4.278 17.55.45 13.722.45 9 .45 4.278 4.278.45 9 .45zM6.254 6.254c-.239.238-.224.617 0 .84l1.962 1.963-1.962 1.963c-.239.238-.239.603 0 .841.238.238.603.238.84 0l1.963-1.963 1.963 1.963c.238.238.603.238.84 0 .24-.238.24-.603 0-.841L9.899 9.057l1.963-1.962c.238-.238.238-.603 0-.841-.238-.239-.603-.239-.841 0L9.057 8.216 7.095 6.254c-.238-.239-.603-.239-.841 0z" transform="translate(-327 -264) translate(0 166) translate(15 52) translate(5 35) translate(307 11)"/>
                        </g>
                    </g>
                </g>
            </g>
        </g>
    </g>
</svg>
