<svg xmlns="http://www.w3.org/2000/svg" xmlns:xlink="http://www.w3.org/1999/xlink" width="24" height="24" viewBox="0 0 24 24">
    <defs>
        <rect id="hsfmzk6qua" width="24" height="24" x="0" y="0" rx="5"/>
    </defs>
    <g fill="none" fill-rule="evenodd">
        <g>
            <g>
                <g>
                    <g transform="translate(-35 -431) translate(15 338) translate(5 85) translate(15 8)">
                        <g>
                            <mask id="p21fgsdl7b" fill="#fff">
                                <use xlink:href="#hsfmzk6qua"/>
                            </mask>
                            <use fill="#FFF" xlink:href="#hsfmzk6qua"/>
                            <g mask="url(#p21fgsdl7b)">
                                <g fill-rule="nonzero">
                                    <path fill="#000" d="M21.096 2.42v1.472h-8.351v.688h8.35v1.693h-8.35s-1.173.058-1.59-1.151V2.42h9.94zM8.446.104S9.99.369 9.99 1.667V4.92s-.107 1.353-1.598 1.353H.18V2.38h1.55v2.2h5.826s.89-.2.89-.714v-1.3s-.134-.756-1.208-.756H.18V.103h8.266zm12.65 0v1.654h-9.942v-.31s.358-1.345 1.83-1.345h8.112z" transform="translate(1.333 5.333)"/>
                                    <g>
                                        <path fill="#87363C" d="M0.108 0.043H1.108V2.2710000000000004H0.108z" transform="translate(1.333 5.333) translate(0 8.406)"/>
                                        <path fill="#1B1315" d="M0.334 0.043H1.334V2.2710000000000004H0.334z" transform="translate(1.333 5.333) translate(0 8.406)"/>
                                        <path fill="#0098B5" d="M0.611 0.043H1.611V2.2710000000000004H0.611z" transform="translate(1.333 5.333) translate(0 8.406)"/>
                                        <path fill="#123458" d="M1.069 0.043H2.069V2.2710000000000004H1.069z" transform="translate(1.333 5.333) translate(0 8.406)"/>
                                        <path fill="#04311F" d="M1.298 0.043H2.298V2.2710000000000004H1.298z" transform="translate(1.333 5.333) translate(0 8.406)"/>
                                        <path fill="#30644D" d="M1.413 0.043H2.4130000000000003V2.2710000000000004H1.413z" transform="translate(1.333 5.333) translate(0 8.406)"/>
                                        <path fill="#2B307A" d="M1.556 0.043H2.556V2.2710000000000004H1.556z" transform="translate(1.333 5.333) translate(0 8.406)"/>
                                        <path fill="#192013" d="M2.256 0.043H3.256V2.2710000000000004H2.256z" transform="translate(1.333 5.333) translate(0 8.406)"/>
                                        <path fill="#C2383E" d="M2.503 0.043H3.503V2.2710000000000004H2.503z" transform="translate(1.333 5.333) translate(0 8.406)"/>
                                        <path fill="#3E1613" d="M3.457 0.043H4.457V2.2710000000000004H3.457z" transform="translate(1.333 5.333) translate(0 8.406)"/>
                                        <path fill="#E39138" d="M3.591 0.043H4.591V2.2710000000000004H3.591z" transform="translate(1.333 5.333) translate(0 8.406)"/>
                                        <path fill="#C53640" d="M4.072 0.043H5.072V2.2710000000000004H4.072z" transform="translate(1.333 5.333) translate(0 8.406)"/>
                                        <path fill="#E19244" d="M4.189 0.043H5.189V2.2710000000000004H4.189z" transform="translate(1.333 5.333) translate(0 8.406)"/>
                                        <path fill="#C49C87" d="M4.413 0.043H5.413V2.2710000000000004H4.413z" transform="translate(1.333 5.333) translate(0 8.406)"/>
                                        <path fill="#51231A" d="M4.56 0.043H5.56V2.2710000000000004H4.56z" transform="translate(1.333 5.333) translate(0 8.406)"/>
                                        <path fill="#2E307D" d="M4.684 0.043H5.684V2.2710000000000004H4.684z" transform="translate(1.333 5.333) translate(0 8.406)"/>
                                        <path fill="#2F2525" d="M5.142 0.043H6.142V2.2710000000000004H5.142z" transform="translate(1.333 5.333) translate(0 8.406)"/>
                                        <path fill="#553E40" d="M5.393 0.043H6.393V2.2710000000000004H5.393z" transform="translate(1.333 5.333) translate(0 8.406)"/>
                                        <path fill="#311C20" d="M5.519 0.043H6.519V2.2710000000000004H5.519z" transform="translate(1.333 5.333) translate(0 8.406)"/>
                                        <path fill="#F5DD67" d="M5.645 0.043H6.645V2.2710000000000004H5.645z" transform="translate(1.333 5.333) translate(0 8.406)"/>
                                        <path fill="#0D7478" d="M6.119 0.043H7.119V2.2710000000000004H6.119z" transform="translate(1.333 5.333) translate(0 8.406)"/>
                                        <path fill="#0D7478" d="M6.593 0.043H7.593V2.2710000000000004H6.593z" transform="translate(1.333 5.333) translate(0 8.406)"/>
                                        <path fill="#713625" d="M6.83 0.043H7.83V2.2710000000000004H6.83z" transform="translate(1.333 5.333) translate(0 8.406)"/>
                                        <path fill="#B57F5C" d="M6.948 0.043H7.948V2.2710000000000004H6.948z" transform="translate(1.333 5.333) translate(0 8.406)"/>
                                        <path fill="#765D81" d="M7.066 0.043H8.065999999999999V2.2710000000000004H7.066z" transform="translate(1.333 5.333) translate(0 8.406)"/>
                                        <path fill="#452B53" d="M7.186 0.043H8.186V2.2710000000000004H7.186z" transform="translate(1.333 5.333) translate(0 8.406)"/>
                                        <path fill="#2B306E" d="M7.304 0.043H8.304V2.2710000000000004H7.304z" transform="translate(1.333 5.333) translate(0 8.406)"/>
                                        <path fill="#A65839" d="M7.555 0.043H8.555V2.2710000000000004H7.555z" transform="translate(1.333 5.333) translate(0 8.406)"/>
                                        <path fill="#BD7C49" d="M7.666 0.043H8.666V2.2710000000000004H7.666z" transform="translate(1.333 5.333) translate(0 8.406)"/>
                                        <path fill="#262B1A" d="M7.806 0.043H8.806000000000001V2.2710000000000004H7.806z" transform="translate(1.333 5.333) translate(0 8.406)"/>
                                        <path fill="#D0D332" d="M8.161 0.043H9.161V2.2710000000000004H8.161z" transform="translate(1.333 5.333) translate(0 8.406)"/>
                                        <path fill="#6A6A34" d="M8.632 0.043H9.632V2.2710000000000004H8.632z" transform="translate(1.333 5.333) translate(0 8.406)"/>
                                        <path fill="#D0CE59" d="M8.757 0.043H9.757V2.2710000000000004H8.757z" transform="translate(1.333 5.333) translate(0 8.406)"/>
                                        <path fill="#8C8B5B" d="M8.997 0.043H9.997V2.2710000000000004H8.997z" transform="translate(1.333 5.333) translate(0 8.406)"/>
                                        <path fill="#1E1F13" d="M9.117 0.043H10.117V2.2710000000000004H9.117z" transform="translate(1.333 5.333) translate(0 8.406)"/>
                                        <path fill="#054C35" d="M9.238 0.043H10.238V2.2710000000000004H9.238z" transform="translate(1.333 5.333) translate(0 8.406)"/>
                                        <path fill="#111616" d="M9.477 0.043H10.477V2.2710000000000004H9.477z" transform="translate(1.333 5.333) translate(0 8.406)"/>
                                        <path fill="#B28A26" d="M9.717 0.043H10.717V2.2710000000000004H9.717z" transform="translate(1.333 5.333) translate(0 8.406)"/>
                                        <path fill="#F2C855" d="M9.837 0.043H10.837V2.2710000000000004H9.837z" transform="translate(1.333 5.333) translate(0 8.406)"/>
                                        <path fill="#878AA0" d="M10.198 0.043H11.198V2.2710000000000004H10.198z" transform="translate(1.333 5.333) translate(0 8.406)"/>
                                        <path fill="#325154" d="M10.324 0.043H11.324V2.2710000000000004H10.324z" transform="translate(1.333 5.333) translate(0 8.406)"/>
                                        <path fill="#00A2C8" d="M10.438 0.043H11.438V2.2710000000000004H10.438z" transform="translate(1.333 5.333) translate(0 8.406)"/>
                                        <path fill="#3C78B0" d="M10.678 0.043H11.678V2.2710000000000004H10.678z" transform="translate(1.333 5.333) translate(0 8.406)"/>
                                        <path fill="#213176" d="M10.799 0.043H11.799V2.2710000000000004H10.799z" transform="translate(1.333 5.333) translate(0 8.406)"/>
                                        <path fill="#A57E34" d="M11.164 0.043H12.164V2.2710000000000004H11.164z" transform="translate(1.333 5.333) translate(0 8.406)"/>
                                        <path fill="#D9D375" d="M11.279 0.043H12.279V2.2710000000000004H11.279z" transform="translate(1.333 5.333) translate(0 8.406)"/>
                                        <path fill="#8C8831" d="M11.519 0.043H12.519V2.2710000000000004H11.519z" transform="translate(1.333 5.333) translate(0 8.406)"/>
                                        <path fill="#C09E39" d="M11.639 0.043H12.639V2.2710000000000004H11.639z" transform="translate(1.333 5.333) translate(0 8.406)"/>
                                        <path fill="#E7D26E" d="M11.76 0.043H12.76V2.2710000000000004H11.76z" transform="translate(1.333 5.333) translate(0 8.406)"/>
                                        <path fill="#806A5A" d="M11.88 0.043H12.88V2.2710000000000004H11.88z" transform="translate(1.333 5.333) translate(0 8.406)"/>
                                        <path fill="#3F1814" d="M11.999 0.043H12.999V2.2710000000000004H11.999z" transform="translate(1.333 5.333) translate(0 8.406)"/>
                                        <path fill="#BE996B" d="M12.235 0.043H13.235V2.2710000000000004H12.235z" transform="translate(1.333 5.333) translate(0 8.406)"/>
                                        <path fill="#323124" d="M12.353 0.043H13.353V2.2710000000000004H12.353z" transform="translate(1.333 5.333) translate(0 8.406)"/>
                                        <path fill="#1B1910" d="M12.49 0.043H13.49V2.2710000000000004H12.49z" transform="translate(1.333 5.333) translate(0 8.406)"/>
                                        <path fill="#17172F" d="M12.6 0.043H13.6V2.2710000000000004H12.6z" transform="translate(1.333 5.333) translate(0 8.406)"/>
                                        <path fill="#2C2B42" d="M12.711 0.043H13.711V2.2710000000000004H12.711z" transform="translate(1.333 5.333) translate(0 8.406)"/>
                                        <path fill="#772446" d="M12.846 0.043H13.846V2.2710000000000004H12.846z" transform="translate(1.333 5.333) translate(0 8.406)"/>
                                        <path fill="#C8C937" d="M13.321 0.043H14.321V2.2710000000000004H13.321z" transform="translate(1.333 5.333) translate(0 8.406)"/>
                                        <path fill="#00A3D1" d="M13.797 0.043H14.797V2.2710000000000004H13.797z" transform="translate(1.333 5.333) translate(0 8.406)"/>
                                        <path fill="#659F59" d="M14.272 0.043H15.272V2.2710000000000004H14.272z" transform="translate(1.333 5.333) translate(0 8.406)"/>
                                        <path fill="#C3DEA6" d="M14.402 0.043H15.402V2.2710000000000004H14.402z" transform="translate(1.333 5.333) translate(0 8.406)"/>
                                        <path fill="#F6DE36" d="M14.532 0.043H15.532V2.2710000000000004H14.532z" transform="translate(1.333 5.333) translate(0 8.406)"/>
                                        <path fill="#92382B" d="M15.243 0.043H16.243000000000002V2.2710000000000004H15.243z" transform="translate(1.333 5.333) translate(0 8.406)"/>
                                        <path fill="#48101F" d="M15.599 0.043H16.599V2.2710000000000004H15.599z" transform="translate(1.333 5.333) translate(0 8.406)"/>
                                        <path fill="#182818" d="M15.728 0.043H16.728V2.2710000000000004H15.728z" transform="translate(1.333 5.333) translate(0 8.406)"/>
                                        <path fill="#B5BF74" d="M15.838 0.043H16.838V2.2710000000000004H15.838z" transform="translate(1.333 5.333) translate(0 8.406)"/>
                                        <path fill="#1B1510" d="M15.969 0.043H16.969V2.2710000000000004H15.969z" transform="translate(1.333 5.333) translate(0 8.406)"/>
                                        <path fill="#204D8B" d="M16.204 0.043H17.204V2.2710000000000004H16.204z" transform="translate(1.333 5.333) translate(0 8.406)"/>
                                        <path fill="#B43E5F" d="M16.679 0.043H17.679V2.2710000000000004H16.679z" transform="translate(1.333 5.333) translate(0 8.406)"/>
                                        <path fill="#A74781" d="M16.916 0.043H17.916V2.2710000000000004H16.916z" transform="translate(1.333 5.333) translate(0 8.406)"/>
                                        <path fill="#802D5C" d="M17.285 0.043H18.285V2.2710000000000004H17.285z" transform="translate(1.333 5.333) translate(0 8.406)"/>
                                        <path fill="#44132B" d="M17.41 0.043H18.41V2.2710000000000004H17.41z" transform="translate(1.333 5.333) translate(0 8.406)"/>
                                        <path fill="#9C4B73" d="M17.535 0.043H18.535V2.2710000000000004H17.535z" transform="translate(1.333 5.333) translate(0 8.406)"/>
                                        <path fill="#5F3E24" d="M17.66 0.043H18.66V2.2710000000000004H17.66z" transform="translate(1.333 5.333) translate(0 8.406)"/>
                                        <path fill="#A57357" d="M17.785 0.043H18.785V2.2710000000000004H17.785z" transform="translate(1.333 5.333) translate(0 8.406)"/>
                                        <path fill="#C9CC31" d="M17.88 0.043H18.88V2.2710000000000004H17.88z" transform="translate(1.333 5.333) translate(0 8.406)"/>
                                        <path fill="#27301D" d="M18.731 0.043H19.731V2.2710000000000004H18.731z" transform="translate(1.333 5.333) translate(0 8.406)"/>
                                        <path fill="#131B39" d="M18.856 0.043H19.856V2.2710000000000004H18.856z" transform="translate(1.333 5.333) translate(0 8.406)"/>
                                        <path fill="#2C2F75" d="M18.961 0.043H19.961V2.2710000000000004H18.961z" transform="translate(1.333 5.333) translate(0 8.406)"/>
                                        <path fill="#332149" d="M19.326 0.043H20.326V2.2710000000000004H19.326z" transform="translate(1.333 5.333) translate(0 8.406)"/>
                                        <path fill="#C23845" d="M19.572 0.043H20.572V2.2710000000000004H19.572z" transform="translate(1.333 5.333) translate(0 8.406)"/>
                                        <path fill="#DF7663" d="M20.162 0.043H21.162V2.2710000000000004H20.162z" transform="translate(1.333 5.333) translate(0 8.406)"/>
                                        <path fill="#E4C680" d="M20.287 0.043H21.287V2.2710000000000004H20.287z" transform="translate(1.333 5.333) translate(0 8.406)"/>
                                        <path fill="#573A22" d="M20.412 0.043H21.412V2.2710000000000004H20.412z" transform="translate(1.333 5.333) translate(0 8.406)"/>
                                        <path fill="#5D2C63" d="M20.537 0.043H21.537V2.2710000000000004H20.537z" transform="translate(1.333 5.333) translate(0 8.406)"/>
                                        <path fill="#0F1D21" d="M20.768 0.043H21.768V2.2710000000000004H20.768z" transform="translate(1.333 5.333) translate(0 8.406)"/>
                                        <path fill="#212F31" d="M20.883 0.043H21.883V2.2710000000000004H20.883z" transform="translate(1.333 5.333) translate(0 8.406)"/>
                                        <path fill="#3A8585" d="M21.018 0.043H22.018V2.2710000000000004H21.018z" transform="translate(1.333 5.333) translate(0 8.406)"/>
                                        <path fill="#022F31" d="M21.128 0.043H22.128V2.2710000000000004H21.128z" transform="translate(1.333 5.333) translate(0 8.406)"/>
                                        <path fill="#2C3674" d="M6.356 0.043H7.356V2.2710000000000004H6.356z" transform="translate(1.333 5.333) translate(0 8.406)"/>
                                    </g>
                                    <path fill="#000" d="M.807 12.288c-.036.077-.08.154-.135.233v.775H.485v-.56c-.022.022-.042.04-.06.053l-.127-.168c.06-.052.124-.12.193-.206.058-.075.107-.152.142-.227l.174.1zm-.034-.44c-.034.068-.08.137-.135.21-.076.088-.138.15-.186.184l-.129-.168c.052-.039.107-.09.163-.151.048-.056.087-.113.118-.169l.169.093zm.23 1.113c-.046.138-.097.243-.149.314l-.147-.126c.055-.079.1-.168.134-.267l.161.079zm-.196-.18v-.167h1.04v.168h-.498c.055.038.104.082.149.133l-.115.14c-.053-.066-.108-.124-.166-.172l.1-.1h-.51v-.001zm.61-1.02v.107h.395v.165h-.394v.069h.39v.452h-.96v-.452h.383v-.069H.84v-.165h.39v-.107h.187zm-.214 1.126v.195c0 .035.013.054.037.055.01.004.024.004.045.004.08 0 .128-.002.144-.007.017-.007.028-.02.031-.039.004-.01.008-.042.012-.1l.175.1c-.01.09-.03.145-.063.169-.02.01-.052.017-.09.022-.024.005-.094.008-.21.008-.044 0-.083-.004-.118-.007-.096-.004-.142-.055-.142-.154v-.247h.18zm-.088-.493v-.133h-.087v.133h.087zm.168 0h.08v-.133h-.08v.133zm.248 0h.094v-.133h-.094v.133zm.376.748l-.18.087c-.032-.1-.075-.196-.128-.288l.162-.072c.057.082.105.174.146.273zM3.69 12.008v.193h-.618v-.193h.618zm-.055 1.294h-.187v-.067h-.141v.067H3.12v-.58h.515v.58zm-.019-.82v.18H3.14v-.18h.477zm.007-.235v.182h-.477v-.182h.477zm-.007-.466v.186h-.463v-.186h.463zm-.168 1.28v-.16h-.141v.16h.14zm1.046.02h.128v.186H3.69v-.185h.12V12.2h.684v.88zm-.234-1.32v.12h.342v.288h-.194v-.1h-.504v.1h-.196v-.287h.337v-.121h.215zm.04.734v-.107h-.296v.107H4.3zm0 .294v-.107h-.296v.107H4.3zm0 .293v-.107h-.296v.107H4.3zM6.196 11.816v-.062h.175v.062h.308V12h.06v.134h-.06v.185H6.37v.041h.3c.043-.078.081-.164.114-.257.049-.12.084-.234.108-.343l.183.055-.053.192h.342v.179h-.049c-.024.253-.07.466-.142.638-.003.01-.008.018-.012.025.065.104.144.192.235.264l-.128.194c-.086-.083-.158-.168-.214-.26-.069.095-.15.178-.242.247l-.12-.16c.104-.076.19-.17.258-.286-.049-.104-.088-.227-.119-.368l-.037.066-.101-.075v.222h-.397c-.007.017-.012.034-.02.048h.483v.152H6.6c-.027.065-.058.117-.093.161l.148.086-.094.172c-.07-.051-.136-.096-.2-.133-.11.062-.268.106-.473.127l-.045-.167c.13-.007.24-.028.328-.062l-.061-.027c-.008.014-.017.025-.025.035l-.162-.093c.025-.032.05-.066.073-.1h-.168v-.152h.254c.007-.015.015-.03.022-.048H5.87v-.333h.328v-.04h-.31v-.187h-.066V12h.066v-.186h.309v.002zm0 .738v-.052h-.162v.052h.162zm0-.553v-.04h-.141V12h.14zm0 .172v-.038h-.141v.038h.14zm.207.72h-.197l-.011.022c.048.017.097.038.145.058.024-.022.045-.049.063-.08zm-.033-.892h.141v-.04h-.14V12zm0 .172h.141v-.038h-.14v.038zm0 .381h.153v-.052H6.37v.052zm.68.072c.038-.123.066-.27.083-.439H6.96c-.004.007-.005.014-.007.018l-.019.048c.031.145.07.267.115.373zM9.099 11.82c-.035.107-.074.212-.12.312v1.163h-.197v-.803c-.038.056-.075.108-.113.155l-.108-.199c.158-.217.273-.446.344-.688l.194.06zm.885.496c-.062.284-.127.532-.192.746h.32v.186H9.01v-.186h.573c.075-.256.139-.524.192-.807l.21.06zm-.308-.548v.24h.415v.186H9.056v-.186h.418v-.24h.202zm-.201 1.18l-.196.053c-.024-.233-.069-.45-.134-.654l.2-.046c.065.214.107.43.13.647zM12.26 12.817l.228-.027c.007.058.026.101.059.132.032.03.07.046.115.046.049 0 .09-.019.123-.055.033-.036.05-.087.05-.148 0-.06-.016-.106-.048-.14-.032-.035-.07-.052-.117-.052-.03 0-.066.006-.107.017l.026-.19c.064.001.112-.012.146-.04.033-.03.05-.07.05-.117 0-.041-.013-.074-.037-.098-.024-.024-.057-.037-.098-.037-.04 0-.075.014-.103.043-.03.027-.046.068-.052.122l-.217-.037c.015-.074.038-.133.069-.177.03-.044.073-.078.127-.103.055-.025.116-.038.184-.038.116 0 .209.037.278.11.058.061.087.128.087.203 0 .108-.059.193-.177.257.07.015.127.049.168.1.043.053.064.115.064.19 0 .106-.04.198-.119.274-.079.075-.176.113-.294.113-.112 0-.203-.032-.277-.096-.074-.066-.117-.15-.128-.252zM15.093 12.692l.24.076c-.036.134-.098.233-.183.298-.086.065-.195.097-.327.097-.163 0-.297-.056-.402-.167-.106-.11-.157-.262-.157-.455 0-.202.052-.36.158-.474.105-.112.244-.168.417-.168.15 0 .273.044.366.132.056.052.098.128.126.224l-.245.059c-.015-.064-.045-.113-.09-.15-.047-.037-.103-.056-.17-.056-.09 0-.164.032-.22.098-.057.065-.086.17-.086.316 0 .155.028.264.084.33.056.067.129.099.218.099.067 0 .123-.02.17-.063.046-.041.079-.106.1-.196zM16.76 12.131v-.368h.189v.35c.025-.075.045-.15.06-.222l.172.038c-.028.114-.058.21-.086.288l-.148-.041v.093h.174v.181h-.174v.046c.09.08.167.158.234.233l-.113.159c-.041-.062-.08-.116-.12-.168v.576h-.19v-.47c-.041.09-.087.172-.14.25l-.114-.14c.048-.065.1-.154.154-.27.035-.069.063-.14.088-.217h-.197v-.181h.208v-.11l-.162.063c-.02-.097-.044-.184-.073-.26l.155-.073c.032.078.06.158.082.243zm.759-.295v-.073h.193v.073h.328v.168h-.328v.045h.283v.16h-.283v.053h.356v.168h-.905v-.168h.356v-.052h-.296v-.16h.296v-.046h-.324v-.168h.324zm.508 1.241c0 .147-.08.22-.234.22-.035 0-.073-.003-.115-.007l-.04-.192c.055.013.107.018.155.018.025 0 .041-.018.044-.06h-.448v.241h-.187v-.827h.825v.607zm-.187-.394v-.046h-.45v.046h.45zm0 .213v-.053h-.45v.053h.45zM20.004 13.304h-.194v-.062h-.289v.062h-.194v-.786h.677v.786zm-.195-.247v-.354h-.289v.354h.289zm.793-1.254v.613h-1.06v-.613h1.06zm-.194.427v-.24h-.672v.24h.672zm.38 1.074h-.193v-.062h-.303v.062h-.194v-.786h.69v.786zm-.193-.247v-.354h-.303v.354h.303z" transform="translate(1.333 5.333)"/>
                                </g>
                            </g>
                        </g>
                        <rect width="23" height="23" x=".5" y=".5" stroke="#F4F4F4" rx="5"/>
                    </g>
                </g>
            </g>
        </g>
    </g>
</svg>
