<svg xmlns="http://www.w3.org/2000/svg" width="24" height="24" viewBox="0 0 24 24">
    <defs>
        <linearGradient id="2vl9vza5za" x1="96.579%" x2="1.596%" y1="49.545%" y2="50.473%">
            <stop offset="0%" stop-color="#AE1601"/>
            <stop offset="9%" stop-color="#B71803"/>
            <stop offset="23%" stop-color="#CF1E0A"/>
            <stop offset="34%" stop-color="#E72410"/>
            <stop offset="100%" stop-color="#E72410"/>
        </linearGradient>
        <linearGradient id="ymbeeyhnqb" x1="-155.266%" x2="69.075%" y1="-124.138%" y2="66.164%">
            <stop offset="0%" stop-color="#AE1601"/>
            <stop offset="2%" stop-color="#B31702"/>
            <stop offset="18%" stop-color="#CF1E0A"/>
            <stop offset="31%" stop-color="#E1220E"/>
            <stop offset="41%" stop-color="#E72410"/>
            <stop offset="69%" stop-color="#E72410"/>
            <stop offset="100%" stop-color="#E83817"/>
        </linearGradient>
    </defs>
    <g fill="none" fill-rule="evenodd">
        <g>
            <g>
                <g>
                    <g>
                        <g transform="translate(-48 -658) translate(0 639) translate(20 15) translate(0 4) translate(28)">
                            <rect width="24" height="24" fill="#FFF" rx="5"/>
                            <g fill-rule="nonzero">
                                <path fill="#231815" d="M1.053 16.368v2.443c.227.024.454-.051.621-.207.168-.155.26-.376.252-.604v-1.158c0-.368-.137-.453-.358-.453l-.515-.02z" transform="translate(2 2)"/>
                                <path fill="#231815" d="M8.768 15.916v-.274h-5.61v-.4h2.431v-.284H3.158v-.4h2.431v-.284H1.053v.284H2.61v.41H1.053v.285H2.61v.4H1.053v.315h.842c.195-.027.392.037.532.176.14.138.209.334.184.53v1.368c.058.418.4.738.82.769h1.053v-.916l-1.326.463v-.463l2.105-.674v1.59h3.505v-.222H7.484l-2-.694 2-.674h1.284V17h-5.61v-.684c0-.242.253-.4.61-.4h5zM3.442 19.221c-.428.038-.853-.098-1.179-.379-.321.31-.77.45-1.21.38v.252h7.715v-.253H3.442z" transform="translate(2 2)"/>
                                <path fill="#231815" d="M8.958 14.958L6.274 14.958 6.274 15.242 8.768 15.242" transform="translate(2 2)"/>
                                <path fill="#231815" d="M6.274 14.274H8.769V15.274H6.274zM3.874 16.642h4.894v-.326H4.105c-.094 0-.231 0-.231.116v.21z" transform="translate(2 2)"/>
                                <path fill="#E72410" d="M8.768 18.589L8.768 17.263 6.832 17.937z" transform="translate(2 2)"/>
                                <path fill="#231815" d="M8.768 15.642L9.979 15.137 9.979 19.474 10.663 19.474 10.663 14.263 8.768 15.042zM11.168 18.611H14.568V19.611H11.168zM17.39 14.821v-.4h-2.811v-.232h-.684v.232h-2.758v.4h2.758v.284h-2.758v1.79h2.758v.316h-2.758v.4h5.62c.464 0 .632-.137.632-.358.005-.067.005-.134 0-.2h-.673v.084h-2.179v-.295h2.81V15.58c0-.232-.2-.474-.694-.474h-2.106v-.284h2.842zm-3.495 1.674h-2.106V16.2h2.106v.295zm0-.695h-2.106v-.295h2.106v.295zm2.81.695H14.6V16.2h2.105v.295zm-.21-.99c.179 0 .21.084.21.19v.094H14.6v-.294l1.895.01z" transform="translate(2 2)"/>
                                <path fill="#231815" d="M11.137 18.284h5.558v.558c0 .063 0 .116-.127.137h-2.02v.4h2.2c.16.014.318-.037.44-.142.12-.105.194-.256.201-.416v-.926h-6.252v.39zM5.8 7.768c.05.003.1-.014.137-.048.038-.033.06-.08.063-.13V6.8c0-.052-.021-.102-.06-.138-.037-.036-.088-.054-.14-.051H1.684c-.162-.006-.32.053-.438.163-.118.11-.188.264-.193.426v5.579c.01.102.097.18.2.179h1.052c.05.003.1-.014.137-.048.038-.034.06-.08.063-.131v-2.453H5.8c.05.003.1-.014.137-.048.038-.033.06-.08.063-.13v-.79c0-.052-.021-.102-.06-.138-.037-.036-.088-.054-.14-.052H3.4c-.127-.002-.247.062-.316.169l-.537.737V7.768H5.8zM12.263 7.768c.1 0 .184-.078.19-.179V6.8c0-.105-.085-.19-.19-.19H8.126c-.322-.002-.594.239-.631.558v5.337c.017.264.241.465.505.453h4.263c.1 0 .184-.079.19-.18v-.789c0-.049-.02-.096-.056-.13-.036-.034-.085-.051-.134-.048H8.99v-1.485h3.274c.1 0 .184-.078.19-.179v-.79c0-.104-.085-.189-.19-.189h-2.41c-.242 0-.316.18-.4.274l-.464.642V7.768h3.274zM19.316 6.61h-5.369c-.106 0-.194.084-.2.19v.79c.011.102.098.179.2.178h3.106c-.16-.002-.316.058-.432.169 0 0-.463.526-.663.79-.053.092-.079.198-.074.305v3.747c.011.102.097.18.2.179h1.053c.05.003.1-.014.137-.048.038-.034.06-.08.063-.131v-5.01h1.937c.05.002.1-.015.137-.049.037-.033.06-.08.063-.13V6.8c.001-.093-.066-.174-.158-.19z" transform="translate(2 2)"/>
                                <path fill="url(#2vl9vza5za)" d="M1.053 3.411L1.053 4.884 19.516 4.884 17.474 3.411z" transform="translate(2 2)"/>
                                <path fill="url(#ymbeeyhnqb)" d="M15.379 0L15.379 1.895 19.516 4.884 19.516 2.979z" transform="translate(2 2)"/>
                            </g>
                            <rect width="23" height="23" x=".5" y=".5" stroke="#F4F4F4" rx="5"/>
                        </g>
                    </g>
                </g>
            </g>
        </g>
    </g>
</svg>
