<svg xmlns="http://www.w3.org/2000/svg" width="133" height="21" viewBox="0 0 133 21">
    <g fill="none" fill-rule="evenodd">
        <g>
            <g>
                <g>
                    <g>
                        <path fill="#3C3C3C" d="M56.696.922c-.303-.305-.69-.465-1.12-.465-.43 0-.817.16-1.12.465-.303.304-.463.692-.463 1.12 0 .43.16.817.463 1.119.303.304.69.464 1.12.464.43 0 .815-.16 1.118-.462.304-.303.465-.69.465-1.121 0-.43-.16-.818-.463-1.12M56.992 15.213v-10.1H54.17v10.106c0 .344.141.652.408.895.27.244.615.373.998.373.382 0 .728-.13 1-.376.266-.24.406-.545.416-.898" transform="translate(-95 -81) translate(80 66) translate(15 15) translate(1.556)"/>
                        <path fill="#F5281E" d="M63.706 13.824c-.66 0-1.317-.121-1.9-.346-.937-.365-2.185-1.186-2.826-3.03l-.062-.176 9.504-3.304.061.175c.131.38.398 1.67.049 3.07-.408 1.63-1.467 2.752-3.149 3.337-.517.18-1.096.274-1.677.274m7.379-7.658l-.438-1.403c-.186-.594-.542-.895-1.059-.895-.185 0-.392.04-.614.117L56.672 8.263c-.433.15-.717.368-.846.648-.126.266-.113.6.039.994l.526 1.37c1.094 2.864 2.978 4.115 4.365 4.66.935.368 1.982.563 3.023.563.875 0 1.743-.14 2.505-.406 4-1.39 6.106-5.75 4.8-9.926" transform="translate(-95 -81) translate(80 66) translate(15 15) translate(1.556)"/>
                        <path fill="#3C3C3C" d="M44.598 2.709c.224-.294.292-.667.198-1.108-.106-.506-.54-1.096-1.412-1.096-3.12 0-4.827 1.6-4.945 4.623l-.014.342-.444.026c-.298.027-.573.167-.793.404-.25.268-.381.614-.381.998 0 .387.131.736.38 1.007.223.237.49.374.794.4l.451.03v8.044h2.813V8.333h2.002c.337 0 .641-.141.884-.408.242-.27.37-.618.37-1.008 0-.384-.128-.728-.372-.998-.24-.269-.545-.409-.882-.409h-2.012v-.405c0-1.055.324-1.683 1.983-1.776.602-.034 1.104-.26 1.38-.62M90.98 5.079c-.193-.081-.436-.128-.658-.128-.383 0-.888.128-1.138.744l-2.312 5.475-2.26-5.47c-.279-.686-.952-.76-1.228-.76-.205 0-.413.038-.585.109-.23.095-.637.398-.815.84-.12.294-.113.594.014.89l3.325 8.09-2.485 5.906 3.058.014 5.872-13.948c.127-.285.127-.66.003-.98-.095-.243-.31-.576-.791-.782M78.829 11.734c-.15.348-.35.645-.612.909-.252.256-.556.464-.903.614-.346.153-.708.227-1.104.227-.404 0-.767-.074-1.113-.227-.346-.15-.649-.355-.9-.61-.253-.256-.456-.56-.605-.906-.149-.347-.222-.707-.222-1.1 0-.39.073-.748.22-1.095.15-.348.354-.654.608-.909.253-.256.547-.456.899-.612.346-.15.71-.223 1.113-.223.396 0 .757.072 1.102.223.349.152.653.36.905.617.262.263.462.56.612.909.148.344.22.7.22 1.09 0 .391-.072.75-.22 1.093M76.21 4.98c-1.555 0-2.902.558-4.003 1.658-1.1 1.101-1.658 2.448-1.658 4.005s.559 2.904 1.658 4.006c1.101 1.1 2.448 1.658 4.003 1.658 1.388 0 2.228-.452 2.605-.72l.205-.149.038.937h2.813v-5.732c0-1.557-.56-2.906-1.663-4.01-1.11-1.097-2.457-1.653-3.998-1.653M53.312 6.175c-.104-.726-.723-1.16-1.658-1.16h-.243c-1.685 0-2.81 1.029-2.822 1.038l-.229.214-.001-1.146h-2.815l.004 10.115c0 .339.142.643.409.885.269.243.617.372 1.006.372.384 0 .73-.129 1.001-.374.266-.24.405-.546.405-.883v-4.514c0-1.681 1.853-2.618 2.698-2.788.143-.028.325-.041.519-.053.16-.009.327-.02.466-.042.568-.084 1.41-.611 1.26-1.664" transform="translate(-95 -81) translate(80 66) translate(15 15) translate(1.556)"/>
                        <path fill="#F5281E" d="M106.247 12.774h2.549V11.61h-2.549v1.164zm0-2.344h2.549V9.3c0-.068-.035-.102-.103-.102h-2.446v1.232zm-2-4.552h2.821V4.92h-2.821v.958zm0-2.139h2.821v-.89h-2.821v.89zm-1.813 9.035h2.497V11.61h-2.497v1.164zm2.497-3.576h-2.394c-.068 0-.103.034-.103.102v1.13h2.497V9.198zm-2.497 7.084h-1.317v-2.327h-.906v-1.18h.906v-4.45c0-.205.103-.308.308-.308h3.506v-.958h-4.514V5.878h2.513V4.92h-1.915V3.74h1.915v-.891h-2.377v-1.18h2.377V.572h1.317v1.095h2.821V.505h1.317v1.163h2.275v1.18h-2.275v.891h1.933v1.18h-1.933v.959h2.531v1.18h-4.669v.959h3.558c.222 0 .324.103.324.308v4.45h.787v1.18h-.787v.907c0 .53-.205.924-.632 1.215-.53.342-1.47.393-2.839.153l-.051-1.454c.992.257 1.607.308 1.846.137.24-.137.343-.342.343-.599v-.359h-6.362v2.327zm-3.369-3.525c.377.718.701 1.591.992 2.686l-1.214.394c-.307-1.112-.65-2.002-.958-2.618l1.18-.462zm-2.308-3.884v1.882l.051.068h1.573c.051 0 .069-.017.069-.068V8.873h-1.693zm0-1.318h1.693v-1.95h-1.693v1.95zM98.45 4.27v-1.9l-.069-.051h-1.573l-.051.051v1.9h1.693zm1.112 7.87h-3.934c-.12 0-.188-.068-.188-.188V1.19c0-.12.068-.188.188-.188h3.934c.136 0 .204.068.204.188v10.763c0 .12-.068.189-.204.189zm-2.241.873c-.171.959-.513 2.054-1.026 3.32l-1.266-.444c.514-1.318.855-2.396.992-3.234l1.3.358zM123.907 3.995l-.274 2.003c-.496 2.293-1.915 4.637-4.173 6.982l-1.265-.787c1.624-1.626 2.77-3.115 3.403-4.416.393-.89.718-2.155.89-3.782h-1.215c-.496 1.472-1.06 2.67-1.676 3.577l-1.402-.548c1.317-2.019 2.12-4.175 2.394-6.45l1.436.187-.342 1.763h6.567l.29.068c.172.086.257.343.257.77l-.085 6.657c-.086 3.234-.684 5.219-1.761 5.955-.633.462-1.899.428-3.763-.085l-.05-1.694c1.555.53 2.564.65 2.975.342.29-.223.564-.65.786-1.301.223-.684.342-1.848.376-3.422.12-3.628.12-5.545 0-5.699-.034-.085-.102-.12-.188-.12h-.7c-.035 2.277-.565 4.57-1.54 6.897-.958 1.934-2.377 3.593-4.224 4.928l-1.146-1.061c3.489-2.036 5.319-5.63 5.456-10.764h-1.026zm-7.85 1.13h-1.129c-.205 1.455-.393 2.481-.564 3.012l-1.419-.205c.53-1.746.82-3.731.82-5.938v-.89h1.386v.89l-.085 1.677h.991V.505h1.454V3.67h1.47v1.454h-1.47v4.141l1.334-.804.82 1.18c-.615.412-1.333.822-2.154 1.215v5.493h-1.454v-4.808l-2.274.958-.787-1.318c1.248-.444 2.275-.838 3.061-1.197v-4.86z" transform="translate(-95 -81) translate(80 66) translate(15 15) translate(1.556)"/>
                        <path fill="#3C3C3C" d="M13.69 9.564l.865 1.02c-.424.441-.968.883-1.579 1.358l1.647 1.276-.831 1.122c-1.699-1.394-3.16-2.398-4.349-3.009l.765-1.173c.51.272 1.07.578 1.613.97.798-.578 1.427-1.122 1.868-1.564zM6.334 7.082c-.05 0-.068.017-.05.051V8.17l.05.068h6.862l.068-.068V7.133l-.068-.05H6.335zm2.65-4.215H4.807v-1.24h4.178V.505h1.376v1.122h4.212v1.24H10.36v.918h4.874v1.31H4.28v-1.31h4.705v-.918zm-1.563 8.617c-.95.56-1.817.969-2.598 1.19l-.714-1.309c1.427-.425 2.769-1.088 4.026-1.954H5.129c-.101 0-.152-.068-.152-.187V6.08c0-.12.05-.17.152-.17h9.257c.119 0 .187.05.187.17v3.144c0 .119-.068.187-.187.187H10.19l-1.393 1.156v3.755H7.49V11.45l-.068.034zM1.291.828c.815.39 1.698.969 2.683 1.75l-.849 1.19C2.106 2.97 1.24 2.408.527 2.086L1.29.828zM.849 3.955c.816.408 1.733 1.037 2.735 1.887L2.7 7.032C1.647 6.163.78 5.552.068 5.161L.85 3.955zm1.274 5.66c0-.136-.068-.204-.187-.204H.306V7.966h2.887c.255 0 .374.119.374.374v4.01c.068.358.237.715.56 1.105.357.544.951.918 1.733 1.088.883.221 4.161.187 9.766-.119l-.374 1.615-8.068.034c-2.106-.12-3.498-.833-4.177-2.09-.103.34-.391.781-.833 1.257-.459.459-.917.816-1.392 1.037L0 15.003c.883-.425 1.477-.834 1.75-1.259.17-.289.288-.594.373-.968V9.615zM31.348 8.816h-3.295v.9l3.21-.152-.305-.442.39-.306zm-3.295-1.173h3.33l.067-.085v-.832h-3.397v.917zm0-2.022h3.397v-.782c0-.05-.017-.068-.068-.068h-3.33v.85zm-2.938 7.75c.628.56 1.206 1.122 1.664 1.682l-1.07.85c-.56-.629-1.103-1.173-1.596-1.615l1.002-.917zm1.562-6.645h-3.124v.832c-.018.052 0 .068.033.085h3.091v-.917zm0-1.955h-3.09c-.034 0-.052.017-.034.068v.782h3.124v-.85zm-4.908 8.43v-1.309h8.22V10.89l-8.05.39-.153-1.326 4.891-.187v-.95H22.5c-.22 0-.323-.12-.323-.34V3.92c0-.22.102-.34.323-.34h4.178v-.866h-4.5V1.406h4.5V.573h1.376v.833h5.01v1.309h-5.01v.867h4.433c.238 0 .34.118.34.34v4.554c0 .221-.102.34-.34.34h-.153l1.308 1.92-1.07.731-.476-.696-.713.05v1.071h1.885v1.309h-1.885v1.496c0 .628-.272 1.087-.73 1.393-.493.288-1.427.288-2.802-.017v-1.445c1.07.29 1.749.357 2.003.17.102-.085.136-.237.136-.458V13.2h-8.22zm-2.684-4.76l-1.392-.526c1.46-2.26 2.327-4.708 2.547-7.325l1.444.153c-.22 1.41-.476 2.668-.798 3.739v11.896H19.51V7.745l-.425.697z" transform="translate(-95 -81) translate(80 66) translate(15 15) translate(1.556)"/>
                    </g>
                </g>
            </g>
        </g>
    </g>
</svg>
