<svg xmlns="http://www.w3.org/2000/svg" xmlns:xlink="http://www.w3.org/1999/xlink" width="24" height="24" viewBox="0 0 24 24">
    <defs>
        <rect id="becwzgvhva" width="23.333" height="23.333" x=".333" y=".333" rx="5"/>
        <path id="ppn91xq5jc" d="M0 21.961L21.333 21.961 21.333 0.253 0 0.253z"/>
    </defs>
    <g fill="none" fill-rule="evenodd">
        <g>
            <g>
                <g>
                    <g>
                        <g transform="translate(-48 -414) translate(0 395) translate(20 15) translate(0 4) translate(28)">
                            <g>
                                <mask id="wvulksta2b" fill="#fff">
                                    <use xlink:href="#becwzgvhva"/>
                                </mask>
                                <use fill="#006546" xlink:href="#becwzgvhva"/>
                                <g mask="url(#wvulksta2b)">
                                    <g transform="translate(1.333 1.333)">
                                        <path fill="#006546" d="M0 22.588L21.333 22.588 21.333 0.627 0 0.627z"/>
                                        <path fill="#FFF" d="M13.319 19.824v.814H8.202v-.815H4.329c-.379 0-.686-.388-.686-.865L2.023 2.893c0-.478.378-.866.844-.866h15.646c.466 0 .844.388.844.866l-1.602 16.065c0 .477-.308.865-.686.865l-3.75.001z"/>
                                        <path fill="#F60" d="M4.871 4.379h10.477c-1.032.379-4.172 2.463-4.957 3.864H4.883l-.012-3.864z"/>
                                        <path fill="#FE000C" d="M13.22 15.451c-.149 1.4-.154 3.104-.154 4.893H8.525c0-1.789.074-3.493.224-4.893h4.472z"/>
                                        <path fill="#006546" d="M4.537 12.243L6.197 12.243 6.197 12.887 5.47 12.887 5.47 13.429 6.197 13.429 6.197 13.972 5.47 13.972 5.47 14.514 6.197 14.514 6.197 15.135 4.537 15.135zM8.398 12.243L10.058 12.243 10.058 12.887 9.331 12.887 9.331 13.429 10.058 13.429 10.058 13.972 9.331 13.972 9.331 14.514 10.058 14.514 10.058 15.135 8.398 15.135zM12.651 12.243L14.311 12.243 14.311 12.887 13.584 12.887 13.584 13.429 14.311 13.429 14.311 13.972 13.584 13.972 13.584 14.514 14.311 14.514 14.311 15.135 12.651 15.135zM7.441 14.514L8.167 14.514 8.167 15.135 6.508 15.135 6.508 12.243 7.441 12.243zM10.227 12.243L10.69 15.135 11.89 15.135 12.452 12.243 11.757 12.243 11.394 14.198 11.042 12.243z"/>
                                        <mask id="nvqg3ag99d" fill="#fff">
                                            <use xlink:href="#ppn91xq5jc"/>
                                        </mask>
                                        <path fill="#006546" d="M14.702 15.135L15.601 15.135 15.601 12.243 14.702 12.243zM15.601 13.102c.047-.317.507-.232.507-.051v2.084h.9v-2.451c0-.52-.75-.73-1.401-.272" mask="url(#nvqg3ag99d)"/>
                                        <path fill="#FE000C" d="M13.642 11.836c.092-1.107 1.637-2.915 3.135-3.39v-4.27c-4.12 1.807-6.8 4.542-7.38 7.649l4.245.011z" mask="url(#nvqg3ag99d)"/>
                                        <path fill="#006546" d="M14.53 16.049c-.03-.016-.076-.024-.14-.024h-.1v.23h.105c.05 0 .086-.005.11-.015.046-.017.069-.05.069-.099 0-.046-.015-.077-.044-.092zm-.126-.104c.082 0 .142.008.179.023.068.028.102.082.102.162 0 .058-.021.1-.064.127-.022.015-.053.025-.094.03.05.009.087.03.11.064.024.034.036.067.036.1v.046c0 .015 0 .03.002.048 0 .017.003.028.005.033l.005.008h-.108l-.001-.006-.002-.007-.002-.02V16.5c0-.074-.02-.122-.062-.146-.025-.014-.068-.02-.129-.02h-.091v.251h-.115v-.64h.23zm-.352-.032c-.1.098-.15.217-.15.355 0 .14.05.26.15.357.099.099.22.148.363.148s.263-.05.364-.148c.1-.098.149-.217.149-.357 0-.138-.05-.257-.15-.355-.1-.098-.221-.147-.363-.147s-.263.049-.363.147zm.785.768c-.116.115-.257.172-.422.172-.165 0-.306-.057-.421-.172-.116-.113-.173-.251-.173-.414 0-.16.058-.297.175-.411.115-.113.255-.17.419-.17.165 0 .306.057.422.17.116.113.175.25.175.411 0 .162-.059.3-.175.414z" mask="url(#nvqg3ag99d)"/>
                                    </g>
                                </g>
                            </g>
                            <rect width="23" height="23" x=".5" y=".5" stroke="#F4F4F4" rx="5"/>
                        </g>
                    </g>
                </g>
            </g>
        </g>
    </g>
</svg>
