<svg xmlns="http://www.w3.org/2000/svg" xmlns:xlink="http://www.w3.org/1999/xlink" width="24" height="24" viewBox="0 0 24 24">
    <defs>
        <rect id="vzmgn06kta" width="23.333" height="23.333" x=".333" y=".333" rx="5"/>
    </defs>
    <g fill="none" fill-rule="evenodd">
        <g>
            <g>
                <g>
                    <g>
                        <g>
                            <g transform="translate(-48 -526) translate(0 395) translate(0 112) translate(20 15) translate(0 4) translate(28)">
                                <g>
                                    <g>
                                        <mask id="kspjrdehbb" fill="#fff">
                                            <use xlink:href="#vzmgn06kta"/>
                                        </mask>
                                        <use fill="#FFF" xlink:href="#vzmgn06kta"/>
                                        <g mask="url(#kspjrdehbb)">
                                            <g>
                                                <path fill="#0079C4" d="M0 25.185L22.667 25.185 22.667 17 0 17zM12.028 12.283l-.474-1.235h-.695s.856 2.114.841 2.134c-.004.015-.288.75-.303.77.02.005.695 0 .7-.005.005-.035 1.038-2.9 1.038-2.9h-.666l-.44 1.236zM9.287 10.008c-.22 0-.401.185-.401.41 0 .225.176.41.401.41.22 0 .401-.185.401-.41 0-.23-.18-.41-.401-.41M4.411 12.798c-.044.04-.108.044-.397.044-.044 0-.215-.064-.215-.26 0-.36.362-.324.465-.324.098 0 .206.04.206.11 0 .055.005.22.005.294 0 .075-.035.11-.064.136m.666.284v-1.365c-.01-.13-.083-.664-.72-.694h-.181c-.656.015-.74.155-.74.155v.535s.202-.16.485-.165c.28-.005.392.04.456.1.014.015.029.035.044.055.02.045.039.08.049.14 0 0-.005.03-.01.035-.005.005-.025.005-.025.005l-.024-.005c-.015-.01-.108-.065-.47-.05-.225.01-.48.175-.529.24-.063.075-.215.19-.215.58 0 .13.049.29.157.48.107.19.445.244.455.244.171.005.357-.005.44-.03.089-.03.172-.09.196-.11.015-.015.049-.01.049.006 0 .04.01.074.03.11.005.02.01.03.01.03h.655c-.024-.03-.044-.05-.053-.076-.01-.05-.06-.175-.06-.22M17.835 12.798c-.044.04-.108.044-.397.044-.044 0-.215-.064-.215-.26 0-.36.362-.324.465-.324.098 0 .206.04.206.11v.294c.004.075-.03.11-.06.136m.667.284v-1.365c-.01-.13-.079-.664-.72-.694H17.6c-.661.015-.74.155-.74.155v.535s.201-.16.48-.165c.28-.005.392.04.46.1.015.015.03.035.045.055.02.045.039.08.049.14 0 0-.006.03-.01.035-.005.005-.025.005-.025.005-.005 0-.02-.005-.024-.005-.01-.01-.108-.065-.466-.05-.23.01-.48.175-.533.24-.064.075-.215.19-.215.58 0 .13.049.29.156.48.108.19.446.244.456.244.17.005.357-.005.44-.03.088-.03.172-.09.196-.11.015-.015.049-.01.049.006 0 .04.015.074.03.11l.014.03h.656c-.024-.03-.044-.05-.059-.076-.01-.05-.058-.175-.058-.22M7.833 11.018c-.352 0-.641.12-.656.275-.015-.155-.274-.275-.597-.275-.25 0-.465.075-.554.18v-.145h-.543c-.024 0-.03.01-.03.03V13.372h.598v-1.514c0-.125.142-.225.323-.225.181 0 .323.1.323.225v1.514h.612v-1.514c0-.125.142-.225.323-.225.181 0 .323.1.323.225v1.514h.622V11.673c-.03-.45-.392-.655-.744-.655M19.455 11.243v-.195h-.602v2.32h.597v-1.5c.064-.055.23-.175.421-.175.245 0 .357.095.357.095v-.675s-.141-.085-.318-.085c-.132 0-.347.125-.455.215M8.979 13.368L9.586 13.368 9.586 11.048 8.979 11.048zM10.041 13.367L10.643 13.367 10.643 10.053 10.041 10.053zM1.733 10.688L3.202 10.688 3.202 10.053 1.733 10.053 1.101 10.053 1.101 10.688 1.101 13.367 1.733 13.367 1.733 11.913 3.143 11.913 3.143 11.278 1.733 11.278zM21.84 11.653v-.605h-.525v-.87l-.597.28v.585h-.333v.605h.333v1.075h.005c.034.574.52.64.754.64.245 0 .338-.066.338-.066v-.574s-.054.044-.274.044c-.22 0-.22-.31-.22-.31v-.814h.518v.01zM14.819 11.068l-.808-1.015h-.656v3.32h.656v-2.29s.686.895.808 1.06c.123-.16.808-1.055.808-1.06v2.29h.66v-3.32h-.66l-.808 1.015" transform="translate(.667)"/>
                                                <path fill="#1EAA39" d="M0 7.534L22.667 7.534 22.667 0.176 0 0.176z" transform="translate(.667)"/>
                                            </g>
                                        </g>
                                    </g>
                                    <rect width="23" height="23" x=".5" y=".5" stroke="#F4F4F4" rx="5"/>
                                </g>
                                <rect width="23" height="23" x=".5" y=".5" stroke="#F4F4F4" rx="5"/>
                            </g>
                        </g>
                    </g>
                </g>
            </g>
        </g>
    </g>
</svg>
