<svg xmlns="http://www.w3.org/2000/svg" xmlns:xlink="http://www.w3.org/1999/xlink" width="70" height="78"><defs><path id="a" d="M0 0h70v78H0z"/></defs><g fill="none" fill-rule="evenodd"><mask id="b" fill="#fff"><use xlink:href="#a"/></mask><use fill="#FFF" stroke="#F9F9F9" xlink:href="#a"/><g stroke="#ADADAD" stroke-width="2" mask="url(#b)"><path d="M40.394 43.915H25.642l-7.686 8.604c-.663.743-1.798.217-1.798-.834v-7.77H14.05c-1.746 0-3.161-1.585-3.161-3.54V19.14c0-1.955 1.415-3.539 3.161-3.539h26.344c1.746 0 3.162 1.584 3.162 3.54v21.235c0 1.955-1.416 3.54-3.162 3.54z"/><path d="M46.56 25.133h9.413c1.733 0 3.138 1.585 3.138 3.54v21.236c0 1.954-1.405 3.539-3.138 3.539H51.79v7.77c0 1.051-1.126 1.577-1.785.834l-7.629-8.604h-10.46c-1.732 0-3.137-1.585-3.137-3.54V47.55m-8.557-16.783h3.111m2.334 0h3.11m2.334 0h3.111"/></g></g></svg>