<svg xmlns="http://www.w3.org/2000/svg" xmlns:xlink="http://www.w3.org/1999/xlink" width="172" height="105"><defs><path id="a" d="M.34.315h41.318V86.96H.34z"/><path id="c" d="M0 0h9.724v20.851H0z"/></defs><g fill="none" fill-rule="evenodd"><path fill="#3A3C3C" d="M78.845 61.896a3.327 3.327 0 00-.504-4.699L67.962 48.87a3.374 3.374 0 00-4.726.501 3.328 3.328 0 00.504 4.699l10.379 8.327a3.374 3.374 0 004.726-.501"/><g transform="matrix(-1 0 0 1 74.783 13.15)"><mask id="b" fill="#fff"><use xlink:href="#a"/></mask><path fill="#3A3C3C" d="M27.252 86.96L.34 66.207c10.265-13.404 10.384-31.968.266-45.55L26.986.315c19.458 25.578 19.577 60.89.266 86.645" mask="url(#b)"/></g><path fill="#FFF" d="M52.083 79.497L64.2 74.138c1.939-.903 2.721-3.353 2.03-5.55a40.13 40.13 0 01-.574-22.284c.574-2.226-.312-4.63-2.265-5.434l-12.197-4.742c-1.943-.804-4.634 1.292-5.569 4.785a61.291 61.291 0 00.664 34.038c1.072 3.465 3.865 5.448 5.794 4.546"/><path fill="#3A3C3C" d="M39.282 83.055c-.546.278-39.226 13.85-39.226 13.85l50.406-.507m16.744-13.285l7.231-3.773 3.729 4.188-5.847 5.145z"/><path fill="#3A3C3C" d="M75.48 83.104l9.121-8.026L86 76.648l-9.12 8.027zM59.397 96.239l-3.994 2.466 1.303 2.085 3.994-2.466z"/><path fill="#3A3C3C" d="M54.688 94.334l-7.761 4.792 3.472 5.558 7.762-4.792zM25.747 36.838l5.013 2.893 5.012 2.893.014-5.762.014-5.762-5.026 2.87z"/><path fill="#3A3C3C" d="M25.322 46.108l5.07 2.792 5.071 2.792-.103-5.761-.103-5.761-4.967 2.97z"/><path fill="#3A3C3C" d="M25.18 54.572l5.07 2.792 5.071 2.792-.103-5.761-.103-5.761-4.967 2.969z"/><path fill="#3A3C3C" d="M25.374 64.658l5.387 2.128 5.387 2.127-.84-5.701-.84-5.701-4.547 3.573z"/><path fill="#3A3C3C" d="M26.308 74.82l5.553 1.652 5.553 1.653-1.337-5.607-1.337-5.607-4.215 3.954z"/><path fill="#3A3C3C" d="M28.187 80.942l4.77 3.273 4.77 3.274.467-5.744.467-5.743-5.237 2.47zM24.9 27.636l4.907 3.065 4.908 3.065.216-5.758.217-5.758-5.125 2.693z"/><g transform="matrix(-1 0 0 1 52 44)"><mask id="d" fill="#fff"><use xlink:href="#c"/></mask><path fill="#3A3C3C" d="M2.354 20.748C.681 20.3-.329 18.513.098 16.756L3.567 2.472C3.994.716 5.697-.345 7.369.102c1.674.449 2.684 2.236 2.258 3.993l-3.47 14.284c-.427 1.757-2.13 2.818-3.803 2.37" mask="url(#d)"/></g><path fill="#3A3C3C" d="M31.17 30.41C31.17 42.335 44.338 52 60.584 52 76.83 52 90 42.334 90 30.41 90 18.488 76.83 8.822 60.585 8.822c-16.246 0-29.416 9.666-29.416 21.59"/><path fill="#FFF" d="M49.699 27.161c0 3.974 3.215 7.196 7.18 7.196 3.966 0 7.18-3.222 7.18-7.196 0-3.974-3.214-7.197-7.18-7.197-3.965 0-7.18 3.223-7.18 7.197"/><path stroke="#FFF" stroke-width="1.599" d="M49.699 27.161c0 3.974 3.215 7.196 7.18 7.196 3.966 0 7.18-3.222 7.18-7.196 0-3.974-3.214-7.197-7.18-7.197-3.965 0-7.18 3.223-7.18 7.197z"/><path fill="#FFF" d="M73.324 27.161c0 3.462 2.903 6.268 6.486 6.268 3.58 0 6.484-2.806 6.484-6.268 0-3.461-2.903-6.268-6.484-6.268-3.583 0-6.486 2.807-6.486 6.268"/><path stroke="#FFF" stroke-width="1.599" d="M73.324 27.161c0 3.462 2.903 6.268 6.486 6.268 3.58 0 6.484-2.806 6.484-6.268 0-3.461-2.903-6.268-6.484-6.268-3.583 0-6.486 2.807-6.486 6.268z"/><path fill="#3A3C3C" d="M27 16.25l2.555 5.107 2.556 5.107 3.003-4.84 3.004-4.84-5.56-.266z"/><path fill="#3A3C3C" d="M36.265 6.036l.263 5.571.262 5.572 4.833-3.007 4.833-3.007L41.36 8.6z"/><path fill="#3A3C3C" d="M49.201 1.393l-1.604 5.339-1.604 5.34 5.327-1.252 5.327-1.249-3.722-4.089z"/><path fill="#3A3C3C" d="M60.685 0l-2.714 5.107-2.714 5.107 5.56-.079 5.558-.08-2.845-5.027z"/><path fill="#D83323" d="M78.308 38.071c.665 0 1.165.607 1.009 1.236-1.093 4.354-5.124 7.586-9.931 7.586-4.807 0-8.838-3.232-9.93-7.586-.158-.629.342-1.236 1.007-1.236h17.845z"/><path fill="#3A3C3C" fill-rule="nonzero" d="M62.317 24.518l-9.71 5.567a.707.707 0 01-.961-.256.696.696 0 01.257-.954l9.71-5.567a.707.707 0 01.962.256.696.696 0 01-.258.954zm14.87-1.158l7.447 5.981c.3.24.36.694.134 1.013a.65.65 0 01-.948.144l-7.447-5.982a.756.756 0 01-.134-1.013.65.65 0 01.948-.143z"/><path fill="#ADADAD" fill-rule="nonzero" d="M130 39v3h-7v-3h7zm11 0v3h-7v-3h7zm11 0v3h-7v-3h7zm-37.53 26.93h-2.643c-4.325 0-7.827-3.542-7.827-7.908V19.908c0-4.366 3.502-7.908 7.827-7.908h52.346c4.325 0 7.827 3.542 7.827 7.908v38.114c0 4.366-3.502 7.908-7.827 7.908h-28.671l-14.818 14.984c-2.293 2.32-6.215.677-6.215-2.594V65.93zm49.703-3.111c2.614 0 4.736-2.146 4.736-4.797V19.908c0-2.651-2.122-4.797-4.736-4.797h-52.346c-2.614 0-4.736 2.146-4.736 4.797v38.114c0 2.65 2.122 4.797 4.736 4.797h5.733v15.5c0 .502.589.749.933.4l15.724-15.9h29.956z"/></g></svg>