<svg xmlns="http://www.w3.org/2000/svg" width="120" height="33"><g fill="none" fill-rule="evenodd"><text fill="#FE7501" font-family="PingFangTC-Semibold, PingFang TC" font-size="20" font-weight="500"><tspan x="40" y="23">問答紀錄</tspan></text><circle cx="16.5" cy="16.5" r="15.5" fill="#F07330" stroke="#FBD269" stroke-width="2"/><path fill="#E0E0E0" d="M7.21 12.375h13.63c.792 0 1.435.657 1.435 1.467v7.333c0 .81-.643 1.467-1.435 1.467H9.362l-3.587 2.933V13.842c0-.81.643-1.467 1.435-1.467z"/><path d="M9.487 16.088h9.9m-9.9 3.299h9.9" stroke="#FFF" stroke-linecap="round" stroke-linejoin="round"/><path fill="#00AFEB" d="M26.83 9.075H15.245c-.674 0-1.22.616-1.22 1.375v6.875c0 .759.546 1.375 1.22 1.375H25l3.049 2.75v-11c0-.759-.546-1.375-1.22-1.375z"/><path fill="#FFF" d="M24.75 14.85a.825.825 0 110-1.65.825.825 0 010 1.65zm-7.425 0a.825.825 0 110-1.65.825.825 0 010 1.65zm4.125 0a.825.825 0 110-1.65.825.825 0 010 1.65z"/></g></svg>